<svg id="visual" viewBox="0 0 1440 1080" width="1440" height="1080" xmlns="http://www.w3.org/2000/svg" xmlns:xlink="http://www.w3.org/1999/xlink" version="1.1"><g stroke-width="1" stroke-linejoin="bevel"><path d="M705 513L679 577L718 581Z" fill="#031925" stroke="#031925"></path><path d="M718 581L736 579L705 513Z" fill="#021623" stroke="#021623"></path><path d="M705 513L650 572L679 577Z" fill="#041a26" stroke="#041a26"></path><path d="M736 579L785 546L705 513Z" fill="#051b26" stroke="#051b26"></path><path d="M689 394L676 445L761 403Z" fill="#001321" stroke="#001321"></path><path d="M705 513L676 445L650 572Z" fill="#001321" stroke="#001321"></path><path d="M650 572L742 669L679 577Z" fill="#021723" stroke="#021723"></path><path d="M679 577L742 669L718 581Z" fill="#021723" stroke="#021723"></path><path d="M718 581L742 669L736 579Z" fill="#011522" stroke="#011522"></path><path d="M736 579L842 634L785 546Z" fill="#001321" stroke="#001321"></path><path d="M761 403L676 445L705 513Z" fill="#021623" stroke="#021623"></path><path d="M785 546L761 403L705 513Z" fill="#031925" stroke="#031925"></path><path d="M742 669L842 634L736 579Z" fill="#011522" stroke="#011522"></path><path d="M785 546L818 392L761 403Z" fill="#021623" stroke="#021623"></path><path d="M689 394L569 448L676 445Z" fill="#031925" stroke="#031925"></path><path d="M676 445L569 448L650 572Z" fill="#051b26" stroke="#051b26"></path><path d="M807 789L858 642L842 634Z" fill="#011422" stroke="#011422"></path><path d="M842 634L915 522L785 546Z" fill="#051b26" stroke="#051b26"></path><path d="M915 522L818 392L785 546Z" fill="#051b26" stroke="#051b26"></path><path d="M761 403L799 352L689 394Z" fill="#021723" stroke="#021723"></path><path d="M569 448L506 515L650 572Z" fill="#051c27" stroke="#051c27"></path><path d="M650 572L710 765L742 669Z" fill="#001321" stroke="#001321"></path><path d="M858 642L915 522L842 634Z" fill="#031925" stroke="#031925"></path><path d="M514 705L710 765L650 572Z" fill="#051c27" stroke="#051c27"></path><path d="M742 669L807 789L842 634Z" fill="#041a26" stroke="#041a26"></path><path d="M908 269L799 352L818 392Z" fill="#031824" stroke="#031824"></path><path d="M818 392L799 352L761 403Z" fill="#031824" stroke="#031824"></path><path d="M716 269L658 311L689 394Z" fill="#021623" stroke="#021623"></path><path d="M689 394L658 311L569 448Z" fill="#021723" stroke="#021723"></path><path d="M569 448L436 421L506 515Z" fill="#041a26" stroke="#041a26"></path><path d="M710 765L738 788L742 669Z" fill="#031824" stroke="#031824"></path><path d="M506 515L514 705L650 572Z" fill="#041a26" stroke="#041a26"></path><path d="M710 765L663 817L738 788Z" fill="#021723" stroke="#021723"></path><path d="M858 642L954 555L915 522Z" fill="#011422" stroke="#011422"></path><path d="M915 522L1007 415L818 392Z" fill="#021723" stroke="#021723"></path><path d="M988 630L954 555L858 642Z" fill="#051b26" stroke="#051b26"></path><path d="M738 788L807 789L742 669Z" fill="#031824" stroke="#031824"></path><path d="M487 710L510 731L514 705Z" fill="#031925" stroke="#031925"></path><path d="M514 705L663 817L710 765Z" fill="#031824" stroke="#031824"></path><path d="M658 311L510 363L569 448Z" fill="#041a26" stroke="#041a26"></path><path d="M467 687L487 710L514 705Z" fill="#011522" stroke="#011522"></path><path d="M467 687L514 705L506 515Z" fill="#021623" stroke="#021623"></path><path d="M510 731L663 817L514 705Z" fill="#021623" stroke="#021623"></path><path d="M738 788L806 818L807 789Z" fill="#051b26" stroke="#051b26"></path><path d="M387 622L467 687L506 515Z" fill="#051b26" stroke="#051b26"></path><path d="M799 352L716 269L689 394Z" fill="#041a25" stroke="#041a25"></path><path d="M658 311L587 277L510 363Z" fill="#031824" stroke="#031824"></path><path d="M700 864L806 818L738 788Z" fill="#001321" stroke="#001321"></path><path d="M1001 742L988 630L858 642Z" fill="#021723" stroke="#021723"></path><path d="M908 269L743 258L799 352Z" fill="#001321" stroke="#001321"></path><path d="M799 352L743 258L716 269Z" fill="#031925" stroke="#031925"></path><path d="M510 363L436 421L569 448Z" fill="#031925" stroke="#031925"></path><path d="M711 203L658 311L716 269Z" fill="#001321" stroke="#001321"></path><path d="M711 203L587 277L658 311Z" fill="#021723" stroke="#021723"></path><path d="M510 363L422 397L436 421Z" fill="#021623" stroke="#021623"></path><path d="M876 807L858 642L807 789Z" fill="#051b26" stroke="#051b26"></path><path d="M604 895L670 858L663 817Z" fill="#031925" stroke="#031925"></path><path d="M663 817L700 864L738 788Z" fill="#031925" stroke="#031925"></path><path d="M958 861L876 807L928 893Z" fill="#051b26" stroke="#051b26"></path><path d="M806 818L876 807L807 789Z" fill="#051b26" stroke="#051b26"></path><path d="M587 277L484 324L510 363Z" fill="#011422" stroke="#011422"></path><path d="M1072 714L1010 606L988 630Z" fill="#031925" stroke="#031925"></path><path d="M988 630L1010 606L954 555Z" fill="#021623" stroke="#021623"></path><path d="M954 555L1007 415L915 522Z" fill="#011522" stroke="#011522"></path><path d="M670 858L700 864L663 817Z" fill="#041a25" stroke="#041a25"></path><path d="M484 324L422 397L510 363Z" fill="#001321" stroke="#001321"></path><path d="M333 580L387 622L506 515Z" fill="#031925" stroke="#031925"></path><path d="M360 633L387 622L333 580Z" fill="#011522" stroke="#011522"></path><path d="M467 687L410 751L487 710Z" fill="#051c27" stroke="#051c27"></path><path d="M487 710L410 751L510 731Z" fill="#041a26" stroke="#041a26"></path><path d="M387 622L387 658L467 687Z" fill="#041a26" stroke="#041a26"></path><path d="M506 867L604 895L663 817Z" fill="#031824" stroke="#031824"></path><path d="M1010 606L1007 415L954 555Z" fill="#011522" stroke="#011522"></path><path d="M730 145L711 203L743 258Z" fill="#051c27" stroke="#051c27"></path><path d="M743 258L711 203L716 269Z" fill="#051c27" stroke="#051c27"></path><path d="M587 277L560 232L484 324Z" fill="#031824" stroke="#031824"></path><path d="M711 203L560 232L587 277Z" fill="#021723" stroke="#021723"></path><path d="M287 351L320 429L422 397Z" fill="#041a26" stroke="#041a26"></path><path d="M1017 369L908 269L818 392Z" fill="#041a25" stroke="#041a25"></path><path d="M1135 455L1019 402L1007 415Z" fill="#031925" stroke="#031925"></path><path d="M1007 415L1017 369L818 392Z" fill="#031824" stroke="#031824"></path><path d="M333 580L506 515L436 421Z" fill="#011522" stroke="#011522"></path><path d="M387 622L360 633L387 658Z" fill="#011422" stroke="#011422"></path><path d="M366 700L467 687L387 658Z" fill="#041a26" stroke="#041a26"></path><path d="M366 700L410 751L467 687Z" fill="#011422" stroke="#011422"></path><path d="M876 807L1001 742L858 642Z" fill="#021623" stroke="#021623"></path><path d="M506 867L663 817L510 731Z" fill="#051c27" stroke="#051c27"></path><path d="M670 858L604 895L700 864Z" fill="#001321" stroke="#001321"></path><path d="M1019 402L1017 369L1007 415Z" fill="#021623" stroke="#021623"></path><path d="M360 633L366 700L387 658Z" fill="#021723" stroke="#021723"></path><path d="M311 542L333 580L436 421Z" fill="#051c27" stroke="#051c27"></path><path d="M360 633L260 649L366 700Z" fill="#011422" stroke="#011422"></path><path d="M457 857L506 867L510 731Z" fill="#041a25" stroke="#041a25"></path><path d="M457 857L510 731L410 751Z" fill="#041a26" stroke="#041a26"></path><path d="M1019 402L1021 355L1017 369Z" fill="#011422" stroke="#011422"></path><path d="M1017 369L1021 355L908 269Z" fill="#041a26" stroke="#041a26"></path><path d="M320 429L311 542L436 421Z" fill="#041a25" stroke="#041a25"></path><path d="M333 580L260 649L360 633Z" fill="#051b26" stroke="#051b26"></path><path d="M291 791L457 857L410 751Z" fill="#031824" stroke="#031824"></path><path d="M577 1049L740 998L604 895Z" fill="#031925" stroke="#031925"></path><path d="M972 236L867 185L908 269Z" fill="#031925" stroke="#031925"></path><path d="M908 269L867 185L743 258Z" fill="#031824" stroke="#031824"></path><path d="M422 397L320 429L436 421Z" fill="#031824" stroke="#031824"></path><path d="M287 351L422 397L484 324Z" fill="#021723" stroke="#021723"></path><path d="M928 893L876 807L806 818Z" fill="#031824" stroke="#031824"></path><path d="M876 807L958 861L1001 742Z" fill="#051b26" stroke="#051b26"></path><path d="M765 954L806 818L700 864Z" fill="#021723" stroke="#021723"></path><path d="M867 185L730 145L743 258Z" fill="#051c27" stroke="#051c27"></path><path d="M711 203L622 135L560 232Z" fill="#031925" stroke="#031925"></path><path d="M1092 849L1072 714L1001 742Z" fill="#001321" stroke="#001321"></path><path d="M1001 742L1072 714L988 630Z" fill="#021623" stroke="#021623"></path><path d="M1010 606L1135 455L1007 415Z" fill="#021623" stroke="#021623"></path><path d="M1019 402L1152 323L1021 355Z" fill="#041a25" stroke="#041a25"></path><path d="M740 998L700 864L604 895Z" fill="#021623" stroke="#021623"></path><path d="M740 998L765 954L700 864Z" fill="#051c27" stroke="#051c27"></path><path d="M809 973L928 893L806 818Z" fill="#021723" stroke="#021723"></path><path d="M1021 355L972 236L908 269Z" fill="#021623" stroke="#021623"></path><path d="M730 145L622 135L711 203Z" fill="#021623" stroke="#021623"></path><path d="M345 173L287 351L484 324Z" fill="#041a25" stroke="#041a25"></path><path d="M740 998L809 973L765 954Z" fill="#011422" stroke="#011422"></path><path d="M765 954L809 973L806 818Z" fill="#041a25" stroke="#041a25"></path><path d="M730 145L617 119L622 135Z" fill="#021623" stroke="#021623"></path><path d="M622 135L542 97L560 232Z" fill="#051b26" stroke="#051b26"></path><path d="M1153 482L1135 455L1010 606Z" fill="#051b26" stroke="#051b26"></path><path d="M1021 355L1152 323L972 236Z" fill="#041a26" stroke="#041a26"></path><path d="M577 1049L604 895L506 867Z" fill="#031925" stroke="#031925"></path><path d="M194 591L260 649L311 542Z" fill="#041a26" stroke="#041a26"></path><path d="M311 542L260 649L333 580Z" fill="#001321" stroke="#001321"></path><path d="M366 700L291 791L410 751Z" fill="#021723" stroke="#021723"></path><path d="M1191 591L1153 482L1010 606Z" fill="#021623" stroke="#021623"></path><path d="M424 117L484 324L560 232Z" fill="#051c27" stroke="#051c27"></path><path d="M320 429L236 485L311 542Z" fill="#031824" stroke="#031824"></path><path d="M1208 767L1143 678L1072 714Z" fill="#041a25" stroke="#041a25"></path><path d="M1072 714L1143 678L1010 606Z" fill="#001321" stroke="#001321"></path><path d="M1092 849L1001 742L958 861Z" fill="#031824" stroke="#031824"></path><path d="M287 351L266 395L320 429Z" fill="#051b26" stroke="#051b26"></path><path d="M874 78L851 104L867 185Z" fill="#031925" stroke="#031925"></path><path d="M867 185L851 104L730 145Z" fill="#051b26" stroke="#051b26"></path><path d="M730 145L707 0L617 119Z" fill="#041a26" stroke="#041a26"></path><path d="M234 451L236 485L320 429Z" fill="#021623" stroke="#021623"></path><path d="M260 649L291 791L366 700Z" fill="#051b26" stroke="#051b26"></path><path d="M536 1080L577 1049L514 1080Z" fill="#001321" stroke="#001321"></path><path d="M110 440L234 451L121 365Z" fill="#011422" stroke="#011422"></path><path d="M266 395L234 451L320 429Z" fill="#031925" stroke="#031925"></path><path d="M525 86L542 97L567 0Z" fill="#011422" stroke="#011422"></path><path d="M617 119L542 97L622 135Z" fill="#041a25" stroke="#041a25"></path><path d="M986 1080L1029 899L928 893Z" fill="#001321" stroke="#001321"></path><path d="M928 893L1029 899L958 861Z" fill="#011422" stroke="#011422"></path><path d="M864 1038L928 893L809 973Z" fill="#031925" stroke="#031925"></path><path d="M1153 482L1172 430L1135 455Z" fill="#031824" stroke="#031824"></path><path d="M1135 455L1152 323L1019 402Z" fill="#021623" stroke="#021623"></path><path d="M1012 126L874 78L867 185Z" fill="#041a25" stroke="#041a25"></path><path d="M1241 505L1172 430L1153 482Z" fill="#031925" stroke="#031925"></path><path d="M1205 653L1191 591L1143 678Z" fill="#041a26" stroke="#041a26"></path><path d="M1143 678L1191 591L1010 606Z" fill="#041a26" stroke="#041a26"></path><path d="M1029 899L1092 849L958 861Z" fill="#011422" stroke="#011422"></path><path d="M588 0L542 97L617 119Z" fill="#011522" stroke="#011522"></path><path d="M542 97L424 117L560 232Z" fill="#031824" stroke="#031824"></path><path d="M567 0L521 85L525 86Z" fill="#031824" stroke="#031824"></path><path d="M525 86L521 85L542 97Z" fill="#051b26" stroke="#051b26"></path><path d="M1012 126L867 185L972 236Z" fill="#021723" stroke="#021723"></path><path d="M851 104L707 0L730 145Z" fill="#021723" stroke="#021723"></path><path d="M1172 430L1152 323L1135 455Z" fill="#041a25" stroke="#041a25"></path><path d="M236 485L194 591L311 542Z" fill="#041a25" stroke="#041a25"></path><path d="M260 649L223 766L291 791Z" fill="#001321" stroke="#001321"></path><path d="M110 440L194 591L236 485Z" fill="#051b26" stroke="#051b26"></path><path d="M521 85L424 117L542 97Z" fill="#031925" stroke="#031925"></path><path d="M1208 767L1205 653L1143 678Z" fill="#051c27" stroke="#051c27"></path><path d="M1197 320L1179 333L1172 430Z" fill="#021623" stroke="#021623"></path><path d="M740 998L864 1038L809 973Z" fill="#041a26" stroke="#041a26"></path><path d="M1029 899L1128 861L1092 849Z" fill="#021623" stroke="#021623"></path><path d="M577 1049L506 867L514 1080Z" fill="#051b26" stroke="#051b26"></path><path d="M740 998L677 1080L864 1038Z" fill="#041a26" stroke="#041a26"></path><path d="M424 117L345 173L484 324Z" fill="#021723" stroke="#021723"></path><path d="M287 351L121 365L266 395Z" fill="#011522" stroke="#011522"></path><path d="M1241 505L1153 482L1191 591Z" fill="#051b26" stroke="#051b26"></path><path d="M1172 430L1179 333L1152 323Z" fill="#051c27" stroke="#051c27"></path><path d="M1140 176L1012 126L972 236Z" fill="#051b26" stroke="#051b26"></path><path d="M1140 176L972 236L1152 323Z" fill="#051b26" stroke="#051b26"></path><path d="M117 743L223 766L260 649Z" fill="#021623" stroke="#021623"></path><path d="M291 791L340 931L457 857Z" fill="#051c27" stroke="#051c27"></path><path d="M302 941L340 931L291 791Z" fill="#031824" stroke="#031824"></path><path d="M1151 966L1128 861L1029 899Z" fill="#051b26" stroke="#051b26"></path><path d="M1092 849L1208 767L1072 714Z" fill="#041a26" stroke="#041a26"></path><path d="M676 1080L677 1080L740 998Z" fill="#051c27" stroke="#051c27"></path><path d="M577 1049L676 1080L740 998Z" fill="#011422" stroke="#011422"></path><path d="M308 123L293 196L345 173Z" fill="#011422" stroke="#011422"></path><path d="M345 173L293 196L287 351Z" fill="#011522" stroke="#011522"></path><path d="M234 451L110 440L236 485Z" fill="#011422" stroke="#011422"></path><path d="M1247 596L1241 505L1191 591Z" fill="#051c27" stroke="#051c27"></path><path d="M1241 505L1197 320L1172 430Z" fill="#031925" stroke="#031925"></path><path d="M1179 333L1197 320L1152 323Z" fill="#041a25" stroke="#041a25"></path><path d="M1205 653L1247 596L1191 591Z" fill="#011422" stroke="#011422"></path><path d="M1288 640L1247 596L1205 653Z" fill="#021623" stroke="#021623"></path><path d="M897 0L707 0L874 78Z" fill="#021723" stroke="#021723"></path><path d="M874 78L707 0L851 104Z" fill="#041a26" stroke="#041a26"></path><path d="M521 85L449 0L424 117Z" fill="#051c27" stroke="#051c27"></path><path d="M1128 861L1208 767L1092 849Z" fill="#051c27" stroke="#051c27"></path><path d="M707 0L641 0L617 119Z" fill="#051c27" stroke="#051c27"></path><path d="M514 1080L506 867L452 1080Z" fill="#011422" stroke="#011422"></path><path d="M577 1049L536 1080L676 1080Z" fill="#041a26" stroke="#041a26"></path><path d="M174 906L302 941L291 791Z" fill="#041a25" stroke="#041a25"></path><path d="M452 1080L506 867L457 857Z" fill="#041a26" stroke="#041a26"></path><path d="M641 0L588 0L617 119Z" fill="#021623" stroke="#021623"></path><path d="M185 194L219 230L293 196Z" fill="#041a25" stroke="#041a25"></path><path d="M302 941L313 953L340 931Z" fill="#051b26" stroke="#051b26"></path><path d="M347 999L457 857L340 931Z" fill="#031824" stroke="#031824"></path><path d="M588 0L567 0L542 97Z" fill="#051b26" stroke="#051b26"></path><path d="M313 953L347 999L340 931Z" fill="#051b26" stroke="#051b26"></path><path d="M270 1080L347 999L313 953Z" fill="#051c27" stroke="#051c27"></path><path d="M1197 320L1140 176L1152 323Z" fill="#011422" stroke="#011422"></path><path d="M982 0L897 0L874 78Z" fill="#021623" stroke="#021623"></path><path d="M308 123L345 173L424 117Z" fill="#041a26" stroke="#041a26"></path><path d="M293 196L219 230L287 351Z" fill="#021623" stroke="#021623"></path><path d="M317 23L308 123L424 117Z" fill="#031824" stroke="#031824"></path><path d="M982 0L874 78L1012 126Z" fill="#051b26" stroke="#051b26"></path><path d="M185 194L204 243L219 230Z" fill="#041a25" stroke="#041a25"></path><path d="M219 230L204 243L287 351Z" fill="#021623" stroke="#021623"></path><path d="M347 999L452 1080L457 857Z" fill="#021723" stroke="#021723"></path><path d="M677 1080L955 1080L864 1038Z" fill="#021723" stroke="#021723"></path><path d="M864 1038L955 1080L928 893Z" fill="#051b26" stroke="#051b26"></path><path d="M1128 861L1314 869L1208 767Z" fill="#001321" stroke="#001321"></path><path d="M1317 722L1288 640L1205 653Z" fill="#021623" stroke="#021623"></path><path d="M1247 596L1319 585L1241 505Z" fill="#011422" stroke="#011422"></path><path d="M1241 505L1353 288L1197 320Z" fill="#001321" stroke="#001321"></path><path d="M121 365L234 451L266 395Z" fill="#041a26" stroke="#041a26"></path><path d="M194 591L117 743L260 649Z" fill="#021723" stroke="#021723"></path><path d="M955 1080L986 1080L928 893Z" fill="#031824" stroke="#031824"></path><path d="M567 0L449 0L521 85Z" fill="#011422" stroke="#011422"></path><path d="M1246 196L1165 156L1140 176Z" fill="#001321" stroke="#001321"></path><path d="M1140 176L1063 34L1012 126Z" fill="#021723" stroke="#021723"></path><path d="M1246 196L1140 176L1197 320Z" fill="#041a25" stroke="#041a25"></path><path d="M204 243L121 365L287 351Z" fill="#051c27" stroke="#051c27"></path><path d="M1063 34L1013 21L1012 126Z" fill="#031925" stroke="#031925"></path><path d="M1104 1043L1151 966L1029 899Z" fill="#011422" stroke="#011422"></path><path d="M1317 722L1319 618L1288 640Z" fill="#011522" stroke="#011522"></path><path d="M986 1080L1012 1080L1029 899Z" fill="#041a26" stroke="#041a26"></path><path d="M19 635L117 743L194 591Z" fill="#031824" stroke="#031824"></path><path d="M223 766L174 906L291 791Z" fill="#021623" stroke="#021623"></path><path d="M302 941L202 963L313 953Z" fill="#031925" stroke="#031925"></path><path d="M1013 21L982 0L1012 126Z" fill="#001321" stroke="#001321"></path><path d="M1319 618L1247 596L1288 640Z" fill="#031824" stroke="#031824"></path><path d="M1319 618L1319 585L1247 596Z" fill="#021623" stroke="#021623"></path><path d="M1317 722L1205 653L1208 767Z" fill="#051b26" stroke="#051b26"></path><path d="M1063 34L1000 0L1013 21Z" fill="#041a26" stroke="#041a26"></path><path d="M1013 21L1000 0L982 0Z" fill="#031925" stroke="#031925"></path><path d="M308 123L185 194L293 196Z" fill="#051c27" stroke="#051c27"></path><path d="M204 243L54 328L121 365Z" fill="#041a26" stroke="#041a26"></path><path d="M172 187L185 194L160 136Z" fill="#021723" stroke="#021723"></path><path d="M1165 156L1063 34L1140 176Z" fill="#041a25" stroke="#041a25"></path><path d="M139 860L174 906L223 766Z" fill="#051c27" stroke="#051c27"></path><path d="M347 999L270 1080L452 1080Z" fill="#021723" stroke="#021723"></path><path d="M1012 1080L1104 1043L1029 899Z" fill="#021723" stroke="#021723"></path><path d="M1314 869L1128 861L1151 966Z" fill="#011422" stroke="#011422"></path><path d="M1322 858L1317 722L1208 767Z" fill="#031824" stroke="#031824"></path><path d="M1341 516L1319 585L1440 632Z" fill="#031925" stroke="#031925"></path><path d="M1440 488L1341 516L1440 632Z" fill="#001321" stroke="#001321"></path><path d="M1319 585L1341 516L1241 505Z" fill="#031925" stroke="#031925"></path><path d="M160 136L185 194L308 123Z" fill="#041a26" stroke="#041a26"></path><path d="M185 194L172 187L204 243Z" fill="#031925" stroke="#031925"></path><path d="M100 813L139 860L223 766Z" fill="#041a25" stroke="#041a25"></path><path d="M1265 204L1246 196L1197 320Z" fill="#051c27" stroke="#051c27"></path><path d="M1165 156L1246 87L1063 34Z" fill="#051c27" stroke="#051c27"></path><path d="M219 1080L202 963L154 1080Z" fill="#021623" stroke="#021623"></path><path d="M174 906L202 963L302 941Z" fill="#001321" stroke="#001321"></path><path d="M332 0L317 23L424 117Z" fill="#011522" stroke="#011522"></path><path d="M121 365L70 371L110 440Z" fill="#021623" stroke="#021623"></path><path d="M110 440L47 501L194 591Z" fill="#011522" stroke="#011522"></path><path d="M54 328L70 371L121 365Z" fill="#011522" stroke="#011522"></path><path d="M0 450L47 501L110 440Z" fill="#031925" stroke="#031925"></path><path d="M117 743L100 813L223 766Z" fill="#041a25" stroke="#041a25"></path><path d="M0 753L100 813L117 743Z" fill="#011522" stroke="#011522"></path><path d="M100 1065L202 963L174 906Z" fill="#001321" stroke="#001321"></path><path d="M1353 288L1265 204L1197 320Z" fill="#011522" stroke="#011522"></path><path d="M1246 196L1246 87L1165 156Z" fill="#051b26" stroke="#051b26"></path><path d="M449 0L332 0L424 117Z" fill="#001321" stroke="#001321"></path><path d="M204 0L160 136L308 123Z" fill="#041a26" stroke="#041a26"></path><path d="M1012 1080L1103 1086L1104 1043Z" fill="#011422" stroke="#011422"></path><path d="M1104 1043L1179 1080L1151 966Z" fill="#051c27" stroke="#051c27"></path><path d="M986 1080L1103 1086L1012 1080Z" fill="#001321" stroke="#001321"></path><path d="M955 1080L1103 1086L986 1080Z" fill="#021723" stroke="#021723"></path><path d="M677 1080L1103 1086L955 1080Z" fill="#051c27" stroke="#051c27"></path><path d="M676 1080L1103 1086L677 1080Z" fill="#041a26" stroke="#041a26"></path><path d="M536 1080L1103 1086L676 1080Z" fill="#031824" stroke="#031824"></path><path d="M514 1080L1103 1086L536 1080Z" fill="#051b26" stroke="#051b26"></path><path d="M452 1080L1103 1086L514 1080Z" fill="#051c27" stroke="#051c27"></path><path d="M150 129L160 136L204 0Z" fill="#031925" stroke="#031925"></path><path d="M172 187L54 328L204 243Z" fill="#041a26" stroke="#041a26"></path><path d="M0 450L0 542L47 501Z" fill="#021723" stroke="#021723"></path><path d="M0 302L54 328L0 259Z" fill="#021723" stroke="#021723"></path><path d="M202 963L270 1080L313 953Z" fill="#021623" stroke="#021623"></path><path d="M452 1080L270 1080L1103 1086Z" fill="#011522" stroke="#011522"></path><path d="M219 1080L270 1080L202 963Z" fill="#051b26" stroke="#051b26"></path><path d="M0 575L19 635L47 501Z" fill="#011422" stroke="#011422"></path><path d="M47 501L19 635L194 591Z" fill="#021623" stroke="#021623"></path><path d="M1346 922L1314 869L1151 966Z" fill="#001321" stroke="#001321"></path><path d="M1440 632L1319 585L1319 618Z" fill="#021623" stroke="#021623"></path><path d="M1314 869L1322 858L1208 767Z" fill="#011522" stroke="#011522"></path><path d="M204 0L308 123L317 23Z" fill="#041a25" stroke="#041a25"></path><path d="M160 136L150 129L172 187Z" fill="#031925" stroke="#031925"></path><path d="M0 450L110 440L70 371Z" fill="#051c27" stroke="#051c27"></path><path d="M1341 516L1353 288L1241 505Z" fill="#041a25" stroke="#041a25"></path><path d="M0 542L0 575L47 501Z" fill="#051c27" stroke="#051c27"></path><path d="M0 302L0 450L70 371Z" fill="#041a26" stroke="#041a26"></path><path d="M0 575L0 671L19 635Z" fill="#051b26" stroke="#051b26"></path><path d="M19 635L0 671L117 743Z" fill="#051b26" stroke="#051b26"></path><path d="M65 887L174 906L139 860Z" fill="#051c27" stroke="#051c27"></path><path d="M1337 156L1246 196L1265 204Z" fill="#031925" stroke="#031925"></path><path d="M1337 156L1246 87L1246 196Z" fill="#021723" stroke="#021723"></path><path d="M1063 34L1251 0L1000 0Z" fill="#011522" stroke="#011522"></path><path d="M1103 1086L1179 1080L1104 1043Z" fill="#011422" stroke="#011422"></path><path d="M1314 869L1365 913L1322 858Z" fill="#011522" stroke="#011522"></path><path d="M65 887L139 860L100 813Z" fill="#041a26" stroke="#041a26"></path><path d="M270 1080L219 1080L1103 1086Z" fill="#001321" stroke="#001321"></path><path d="M0 849L65 887L100 813Z" fill="#011422" stroke="#011422"></path><path d="M0 671L0 753L117 743Z" fill="#011422" stroke="#011422"></path><path d="M332 0L204 0L317 23Z" fill="#021723" stroke="#021723"></path><path d="M0 259L54 328L172 187Z" fill="#021723" stroke="#021723"></path><path d="M1440 632L1319 618L1440 690Z" fill="#051b26" stroke="#051b26"></path><path d="M1341 516L1440 333L1353 288Z" fill="#031824" stroke="#031824"></path><path d="M1440 690L1319 618L1317 722Z" fill="#031925" stroke="#031925"></path><path d="M0 259L172 187L0 154Z" fill="#021623" stroke="#021623"></path><path d="M54 328L0 302L70 371Z" fill="#011522" stroke="#011522"></path><path d="M1272 1049L1346 922L1151 966Z" fill="#051b26" stroke="#051b26"></path><path d="M1440 746L1440 690L1317 722Z" fill="#021723" stroke="#021723"></path><path d="M1440 296L1337 156L1353 288Z" fill="#021623" stroke="#021623"></path><path d="M1353 288L1337 156L1265 204Z" fill="#051c27" stroke="#051c27"></path><path d="M1440 746L1317 722L1440 774Z" fill="#031824" stroke="#031824"></path><path d="M1440 976L1365 913L1346 922Z" fill="#041a25" stroke="#041a25"></path><path d="M1346 922L1365 913L1314 869Z" fill="#031824" stroke="#031824"></path><path d="M1179 1080L1272 1049L1151 966Z" fill="#001321" stroke="#001321"></path><path d="M0 154L172 187L150 129Z" fill="#031925" stroke="#031925"></path><path d="M100 1065L174 906L65 887Z" fill="#041a26" stroke="#041a26"></path><path d="M100 1065L154 1080L202 963Z" fill="#051b26" stroke="#051b26"></path><path d="M219 1080L154 1080L1103 1086Z" fill="#041a25" stroke="#041a25"></path><path d="M0 753L0 849L100 813Z" fill="#021623" stroke="#021623"></path><path d="M1440 774L1317 722L1322 858Z" fill="#051b26" stroke="#051b26"></path><path d="M1440 488L1440 333L1341 516Z" fill="#011522" stroke="#011522"></path><path d="M0 849L0 866L65 887Z" fill="#011522" stroke="#011522"></path><path d="M1440 909L1440 774L1322 858Z" fill="#001321" stroke="#001321"></path><path d="M1262 0L1251 1L1246 87Z" fill="#011522" stroke="#011522"></path><path d="M1246 87L1251 1L1063 34Z" fill="#021723" stroke="#021723"></path><path d="M1251 0L1251 1L1262 0Z" fill="#051c27" stroke="#051c27"></path><path d="M1103 1086L1268 1080L1179 1080Z" fill="#051c27" stroke="#051c27"></path><path d="M1179 1080L1268 1080L1272 1049Z" fill="#011422" stroke="#011422"></path><path d="M1272 1049L1316 1032L1346 922Z" fill="#041a26" stroke="#041a26"></path><path d="M1262 0L1246 87L1302 0Z" fill="#031925" stroke="#031925"></path><path d="M1251 1L1251 0L1063 34Z" fill="#011522" stroke="#011522"></path><path d="M1440 488L1442 302L1440 333Z" fill="#041a26" stroke="#041a26"></path><path d="M1440 333L1440 296L1353 288Z" fill="#031925" stroke="#031925"></path><path d="M1440 632L1442 302L1440 488Z" fill="#041a26" stroke="#041a26"></path><path d="M1440 690L1442 302L1440 632Z" fill="#021623" stroke="#021623"></path><path d="M1440 746L1442 302L1440 690Z" fill="#051b26" stroke="#051b26"></path><path d="M1440 774L1442 302L1440 746Z" fill="#041a25" stroke="#041a25"></path><path d="M1442 302L1440 296L1440 333Z" fill="#011422" stroke="#011422"></path><path d="M1283 1080L1316 1032L1272 1049Z" fill="#001321" stroke="#001321"></path><path d="M1365 913L1440 909L1322 858Z" fill="#051c27" stroke="#051c27"></path><path d="M1302 0L1246 87L1337 156Z" fill="#011522" stroke="#011522"></path><path d="M1103 1086L1283 1080L1268 1080Z" fill="#021623" stroke="#021623"></path><path d="M1268 1080L1283 1080L1272 1049Z" fill="#051b26" stroke="#051b26"></path><path d="M0 866L0 915L65 887Z" fill="#031824" stroke="#031824"></path><path d="M0 915L100 1065L65 887Z" fill="#021623" stroke="#021623"></path><path d="M3 0L0 154L150 129Z" fill="#051b26" stroke="#051b26"></path><path d="M1440 91L1302 0L1337 156Z" fill="#011422" stroke="#011422"></path><path d="M1440 976L1440 909L1365 913Z" fill="#051c27" stroke="#051c27"></path><path d="M1440 774L1440 909L1442 302Z" fill="#031925" stroke="#031925"></path><path d="M1440 976L1346 922L1316 1032Z" fill="#041a26" stroke="#041a26"></path><path d="M1440 1080L1440 976L1316 1032Z" fill="#041a25" stroke="#041a25"></path><path d="M1440 909L1440 976L1442 302Z" fill="#031925" stroke="#031925"></path><path d="M1442 302L1440 99L1440 296Z" fill="#021723" stroke="#021723"></path><path d="M1440 296L1440 99L1337 156Z" fill="#011422" stroke="#011422"></path><path d="M1442 302L1440 91L1440 99Z" fill="#001321" stroke="#001321"></path><path d="M1440 99L1440 91L1337 156Z" fill="#041a26" stroke="#041a26"></path><path d="M0 915L0 1080L100 1065Z" fill="#021623" stroke="#021623"></path><path d="M100 1065L0 1080L154 1080Z" fill="#031925" stroke="#031925"></path><path d="M154 1080L0 1080L1103 1086Z" fill="#011422" stroke="#011422"></path><path d="M204 0L3 0L150 129Z" fill="#031925" stroke="#031925"></path><path d="M3 0L0 0L0 154Z" fill="#001321" stroke="#001321"></path><path d="M1103 1086L1440 1080L1283 1080Z" fill="#001321" stroke="#001321"></path><path d="M1283 1080L1440 1080L1316 1032Z" fill="#021723" stroke="#021723"></path><path d="M1440 976L1440 1080L1442 302Z" fill="#041a25" stroke="#041a25"></path><path d="M1440 91L1440 0L1302 0Z" fill="#051c27" stroke="#051c27"></path><path d="M1442 302L1440 0L1440 91Z" fill="#051b26" stroke="#051b26"></path></g></svg>